<mxfile host="app.diagrams.net" modified="2023-09-14T01:38:57.678Z" agent="Mozilla/5.0 (Windows NT 10.0; Win64; x64) AppleWebKit/537.36 (KHTML, like Gecko) Chrome/116.0.0.0 Safari/537.36" etag="VY8N1u9txxm4T8tBGk5V" version="21.7.4" type="github">
  <diagram id="R2lEEEUBdFMjLlhIrx00" name="Page-1">
    <mxGraphModel dx="1900" dy="1642" grid="1" gridSize="10" guides="1" tooltips="1" connect="1" arrows="1" fold="1" page="1" pageScale="1" pageWidth="850" pageHeight="1100" math="0" shadow="0" extFonts="Permanent Marker^https://fonts.googleapis.com/css?family=Permanent+Marker">
      <root>
        <mxCell id="0" />
        <mxCell id="1" parent="0" />
        <mxCell id="u0Waulj6cbrL7kYw__7z-2" value="&lt;font style=&quot;font-size: 18px;&quot;&gt;Produto&lt;/font&gt;" style="rounded=0;whiteSpace=wrap;html=1;" vertex="1" parent="1">
          <mxGeometry x="40" y="40" width="120" height="60" as="geometry" />
        </mxCell>
        <mxCell id="u0Waulj6cbrL7kYw__7z-3" value="&lt;span style=&quot;font-weight: normal;&quot;&gt;Nome Produto&lt;/span&gt;" style="ellipse;whiteSpace=wrap;html=1;fontStyle=1" vertex="1" parent="1">
          <mxGeometry x="-50" y="130" width="80" height="40" as="geometry" />
        </mxCell>
        <mxCell id="u0Waulj6cbrL7kYw__7z-4" value="&lt;u&gt;Código de barra&lt;/u&gt;" style="ellipse;whiteSpace=wrap;html=1;" vertex="1" parent="1">
          <mxGeometry x="40" y="130" width="80" height="40" as="geometry" />
        </mxCell>
        <mxCell id="u0Waulj6cbrL7kYw__7z-5" value="Descrição" style="ellipse;whiteSpace=wrap;html=1;" vertex="1" parent="1">
          <mxGeometry x="130" y="130" width="80" height="40" as="geometry" />
        </mxCell>
        <mxCell id="u0Waulj6cbrL7kYw__7z-6" value="&lt;span style=&quot;font-weight: normal;&quot;&gt;Categoria&lt;/span&gt;" style="ellipse;whiteSpace=wrap;html=1;fontStyle=1" vertex="1" parent="1">
          <mxGeometry x="-60" y="70" width="80" height="40" as="geometry" />
        </mxCell>
        <mxCell id="u0Waulj6cbrL7kYw__7z-7" value="&lt;span style=&quot;font-weight: normal;&quot;&gt;Preço&lt;/span&gt;" style="ellipse;whiteSpace=wrap;html=1;fontStyle=1" vertex="1" parent="1">
          <mxGeometry x="-60" y="20" width="80" height="40" as="geometry" />
        </mxCell>
        <mxCell id="u0Waulj6cbrL7kYw__7z-8" value="&lt;span style=&quot;font-weight: normal;&quot;&gt;Quantidade em estoque&lt;/span&gt;" style="ellipse;whiteSpace=wrap;html=1;fontStyle=1" vertex="1" parent="1">
          <mxGeometry x="10" y="-30" width="80" height="40" as="geometry" />
        </mxCell>
        <mxCell id="u0Waulj6cbrL7kYw__7z-9" value="" style="endArrow=none;html=1;rounded=0;entryX=1;entryY=1;entryDx=0;entryDy=0;" edge="1" parent="1" target="u0Waulj6cbrL7kYw__7z-2">
          <mxGeometry width="50" height="50" relative="1" as="geometry">
            <mxPoint x="170" y="130" as="sourcePoint" />
            <mxPoint x="220" y="80" as="targetPoint" />
          </mxGeometry>
        </mxCell>
        <mxCell id="u0Waulj6cbrL7kYw__7z-10" value="" style="endArrow=none;html=1;rounded=0;exitX=0.5;exitY=0;exitDx=0;exitDy=0;" edge="1" parent="1" source="u0Waulj6cbrL7kYw__7z-4">
          <mxGeometry width="50" height="50" relative="1" as="geometry">
            <mxPoint x="180" y="140" as="sourcePoint" />
            <mxPoint x="80" y="100" as="targetPoint" />
          </mxGeometry>
        </mxCell>
        <mxCell id="u0Waulj6cbrL7kYw__7z-11" value="" style="endArrow=none;html=1;rounded=0;exitX=1;exitY=0;exitDx=0;exitDy=0;entryX=0.147;entryY=1.02;entryDx=0;entryDy=0;entryPerimeter=0;" edge="1" parent="1" source="u0Waulj6cbrL7kYw__7z-3" target="u0Waulj6cbrL7kYw__7z-2">
          <mxGeometry width="50" height="50" relative="1" as="geometry">
            <mxPoint x="90" y="140" as="sourcePoint" />
            <mxPoint x="90" y="110" as="targetPoint" />
          </mxGeometry>
        </mxCell>
        <mxCell id="u0Waulj6cbrL7kYw__7z-12" value="" style="endArrow=none;html=1;rounded=0;exitX=1;exitY=0.5;exitDx=0;exitDy=0;entryX=0;entryY=0.75;entryDx=0;entryDy=0;" edge="1" parent="1" source="u0Waulj6cbrL7kYw__7z-6" target="u0Waulj6cbrL7kYw__7z-2">
          <mxGeometry width="50" height="50" relative="1" as="geometry">
            <mxPoint x="28" y="146" as="sourcePoint" />
            <mxPoint x="68" y="111" as="targetPoint" />
          </mxGeometry>
        </mxCell>
        <mxCell id="u0Waulj6cbrL7kYw__7z-13" value="" style="endArrow=none;html=1;rounded=0;entryX=0;entryY=0.25;entryDx=0;entryDy=0;exitX=1;exitY=0.5;exitDx=0;exitDy=0;" edge="1" parent="1" source="u0Waulj6cbrL7kYw__7z-7" target="u0Waulj6cbrL7kYw__7z-2">
          <mxGeometry width="50" height="50" relative="1" as="geometry">
            <mxPoint x="30" y="80" as="sourcePoint" />
            <mxPoint x="50" y="95" as="targetPoint" />
          </mxGeometry>
        </mxCell>
        <mxCell id="u0Waulj6cbrL7kYw__7z-14" value="" style="endArrow=none;html=1;rounded=0;entryX=1;entryY=1;entryDx=0;entryDy=0;" edge="1" parent="1" target="u0Waulj6cbrL7kYw__7z-8">
          <mxGeometry width="50" height="50" relative="1" as="geometry">
            <mxPoint x="60" y="40" as="sourcePoint" />
            <mxPoint x="110" y="-10" as="targetPoint" />
            <Array as="points" />
          </mxGeometry>
        </mxCell>
        <mxCell id="u0Waulj6cbrL7kYw__7z-16" value="&lt;font style=&quot;font-size: 18px;&quot;&gt;Clientes&lt;/font&gt;" style="rounded=0;whiteSpace=wrap;html=1;" vertex="1" parent="1">
          <mxGeometry x="480" y="40" width="120" height="60" as="geometry" />
        </mxCell>
        <mxCell id="u0Waulj6cbrL7kYw__7z-17" value="&lt;span style=&quot;font-weight: normal;&quot;&gt;Nome Cliente&lt;/span&gt;" style="ellipse;whiteSpace=wrap;html=1;fontStyle=1" vertex="1" parent="1">
          <mxGeometry x="390" y="130" width="80" height="40" as="geometry" />
        </mxCell>
        <mxCell id="u0Waulj6cbrL7kYw__7z-18" value="&lt;u&gt;CPF&lt;/u&gt;" style="ellipse;whiteSpace=wrap;html=1;" vertex="1" parent="1">
          <mxGeometry x="480" y="130" width="80" height="40" as="geometry" />
        </mxCell>
        <mxCell id="u0Waulj6cbrL7kYw__7z-19" value="Endereço" style="ellipse;whiteSpace=wrap;html=1;" vertex="1" parent="1">
          <mxGeometry x="570" y="130" width="80" height="40" as="geometry" />
        </mxCell>
        <mxCell id="u0Waulj6cbrL7kYw__7z-20" value="&lt;span style=&quot;font-weight: normal;&quot;&gt;Telefone&lt;/span&gt;" style="ellipse;whiteSpace=wrap;html=1;fontStyle=1" vertex="1" parent="1">
          <mxGeometry x="640" y="90" width="80" height="40" as="geometry" />
        </mxCell>
        <mxCell id="u0Waulj6cbrL7kYw__7z-21" value="&lt;span style=&quot;font-weight: normal;&quot;&gt;E-mail&lt;/span&gt;" style="ellipse;whiteSpace=wrap;html=1;fontStyle=1" vertex="1" parent="1">
          <mxGeometry x="610" y="10" width="80" height="40" as="geometry" />
        </mxCell>
        <mxCell id="u0Waulj6cbrL7kYw__7z-22" value="&lt;span style=&quot;font-weight: normal;&quot;&gt;Quantidade em estoque&lt;/span&gt;" style="ellipse;whiteSpace=wrap;html=1;fontStyle=1" vertex="1" parent="1">
          <mxGeometry x="520" y="-30" width="80" height="40" as="geometry" />
        </mxCell>
        <mxCell id="u0Waulj6cbrL7kYw__7z-23" value="" style="endArrow=none;html=1;rounded=0;entryX=1;entryY=1;entryDx=0;entryDy=0;" edge="1" parent="1" target="u0Waulj6cbrL7kYw__7z-16">
          <mxGeometry width="50" height="50" relative="1" as="geometry">
            <mxPoint x="610" y="130" as="sourcePoint" />
            <mxPoint x="660" y="80" as="targetPoint" />
          </mxGeometry>
        </mxCell>
        <mxCell id="u0Waulj6cbrL7kYw__7z-24" value="" style="endArrow=none;html=1;rounded=0;exitX=0.5;exitY=0;exitDx=0;exitDy=0;" edge="1" parent="1" source="u0Waulj6cbrL7kYw__7z-18">
          <mxGeometry width="50" height="50" relative="1" as="geometry">
            <mxPoint x="620" y="140" as="sourcePoint" />
            <mxPoint x="520" y="100" as="targetPoint" />
          </mxGeometry>
        </mxCell>
        <mxCell id="u0Waulj6cbrL7kYw__7z-25" value="" style="endArrow=none;html=1;rounded=0;exitX=1;exitY=0;exitDx=0;exitDy=0;entryX=0.147;entryY=1.02;entryDx=0;entryDy=0;entryPerimeter=0;" edge="1" parent="1" source="u0Waulj6cbrL7kYw__7z-17" target="u0Waulj6cbrL7kYw__7z-16">
          <mxGeometry width="50" height="50" relative="1" as="geometry">
            <mxPoint x="530" y="140" as="sourcePoint" />
            <mxPoint x="530" y="110" as="targetPoint" />
          </mxGeometry>
        </mxCell>
        <mxCell id="u0Waulj6cbrL7kYw__7z-26" value="" style="endArrow=none;html=1;rounded=0;exitX=0;exitY=0.5;exitDx=0;exitDy=0;entryX=1;entryY=0.75;entryDx=0;entryDy=0;" edge="1" parent="1" source="u0Waulj6cbrL7kYw__7z-20" target="u0Waulj6cbrL7kYw__7z-16">
          <mxGeometry width="50" height="50" relative="1" as="geometry">
            <mxPoint x="468" y="146" as="sourcePoint" />
            <mxPoint x="508" y="111" as="targetPoint" />
          </mxGeometry>
        </mxCell>
        <mxCell id="u0Waulj6cbrL7kYw__7z-27" value="" style="endArrow=none;html=1;rounded=0;exitX=0.045;exitY=0.7;exitDx=0;exitDy=0;exitPerimeter=0;entryX=1;entryY=0.25;entryDx=0;entryDy=0;" edge="1" parent="1" source="u0Waulj6cbrL7kYw__7z-21" target="u0Waulj6cbrL7kYw__7z-16">
          <mxGeometry width="50" height="50" relative="1" as="geometry">
            <mxPoint x="700" y="70" as="sourcePoint" />
            <mxPoint x="720" y="60" as="targetPoint" />
            <Array as="points" />
          </mxGeometry>
        </mxCell>
        <mxCell id="u0Waulj6cbrL7kYw__7z-28" value="" style="endArrow=none;html=1;rounded=0;entryX=0.5;entryY=1;entryDx=0;entryDy=0;exitX=0.66;exitY=-0.047;exitDx=0;exitDy=0;exitPerimeter=0;" edge="1" parent="1" target="u0Waulj6cbrL7kYw__7z-22" source="u0Waulj6cbrL7kYw__7z-16">
          <mxGeometry width="50" height="50" relative="1" as="geometry">
            <mxPoint x="640" y="40" as="sourcePoint" />
            <mxPoint x="620" y="-10" as="targetPoint" />
            <Array as="points" />
          </mxGeometry>
        </mxCell>
        <mxCell id="u0Waulj6cbrL7kYw__7z-29" value="&lt;font style=&quot;font-size: 18px;&quot;&gt;Forncedores&lt;/font&gt;" style="rounded=0;whiteSpace=wrap;html=1;" vertex="1" parent="1">
          <mxGeometry x="45" y="470" width="120" height="60" as="geometry" />
        </mxCell>
        <mxCell id="u0Waulj6cbrL7kYw__7z-30" value="&lt;span style=&quot;font-weight: normal;&quot;&gt;&lt;font style=&quot;font-size: 11px;&quot;&gt;&lt;u&gt;Nome Representante&lt;/u&gt;&lt;/font&gt;&lt;/span&gt;" style="ellipse;whiteSpace=wrap;html=1;fontStyle=1" vertex="1" parent="1">
          <mxGeometry x="-45" y="560" width="80" height="40" as="geometry" />
        </mxCell>
        <mxCell id="u0Waulj6cbrL7kYw__7z-32" value="Nome Empresa" style="ellipse;whiteSpace=wrap;html=1;" vertex="1" parent="1">
          <mxGeometry x="60" y="570" width="80" height="40" as="geometry" />
        </mxCell>
        <mxCell id="u0Waulj6cbrL7kYw__7z-33" value="&lt;span style=&quot;font-weight: normal;&quot;&gt;Contato&lt;/span&gt;" style="ellipse;whiteSpace=wrap;html=1;fontStyle=1" vertex="1" parent="1">
          <mxGeometry x="-55" y="500" width="80" height="40" as="geometry" />
        </mxCell>
        <mxCell id="u0Waulj6cbrL7kYw__7z-34" value="&lt;span style=&quot;font-weight: normal;&quot;&gt;Produtos fornecidos&lt;/span&gt;" style="ellipse;whiteSpace=wrap;html=1;fontStyle=1" vertex="1" parent="1">
          <mxGeometry x="-55" y="450" width="80" height="40" as="geometry" />
        </mxCell>
        <mxCell id="u0Waulj6cbrL7kYw__7z-35" value="&lt;span style=&quot;font-weight: normal;&quot;&gt;Condições de estoque&lt;/span&gt;" style="ellipse;whiteSpace=wrap;html=1;fontStyle=1" vertex="1" parent="1">
          <mxGeometry x="15" y="400" width="80" height="40" as="geometry" />
        </mxCell>
        <mxCell id="u0Waulj6cbrL7kYw__7z-36" value="" style="endArrow=none;html=1;rounded=0;entryX=0.412;entryY=0.987;entryDx=0;entryDy=0;entryPerimeter=0;" edge="1" parent="1" target="u0Waulj6cbrL7kYw__7z-29">
          <mxGeometry width="50" height="50" relative="1" as="geometry">
            <mxPoint x="94" y="570" as="sourcePoint" />
            <mxPoint x="90" y="530" as="targetPoint" />
            <Array as="points" />
          </mxGeometry>
        </mxCell>
        <mxCell id="u0Waulj6cbrL7kYw__7z-38" value="" style="endArrow=none;html=1;rounded=0;exitX=1;exitY=0;exitDx=0;exitDy=0;entryX=0.147;entryY=1.02;entryDx=0;entryDy=0;entryPerimeter=0;" edge="1" parent="1" source="u0Waulj6cbrL7kYw__7z-30" target="u0Waulj6cbrL7kYw__7z-29">
          <mxGeometry width="50" height="50" relative="1" as="geometry">
            <mxPoint x="95" y="570" as="sourcePoint" />
            <mxPoint x="95" y="540" as="targetPoint" />
          </mxGeometry>
        </mxCell>
        <mxCell id="u0Waulj6cbrL7kYw__7z-39" value="" style="endArrow=none;html=1;rounded=0;exitX=1;exitY=0.5;exitDx=0;exitDy=0;entryX=0;entryY=0.75;entryDx=0;entryDy=0;" edge="1" parent="1" source="u0Waulj6cbrL7kYw__7z-33" target="u0Waulj6cbrL7kYw__7z-29">
          <mxGeometry width="50" height="50" relative="1" as="geometry">
            <mxPoint x="33" y="576" as="sourcePoint" />
            <mxPoint x="73" y="541" as="targetPoint" />
          </mxGeometry>
        </mxCell>
        <mxCell id="u0Waulj6cbrL7kYw__7z-40" value="" style="endArrow=none;html=1;rounded=0;entryX=0;entryY=0.25;entryDx=0;entryDy=0;exitX=1;exitY=0.5;exitDx=0;exitDy=0;" edge="1" parent="1" source="u0Waulj6cbrL7kYw__7z-34" target="u0Waulj6cbrL7kYw__7z-29">
          <mxGeometry width="50" height="50" relative="1" as="geometry">
            <mxPoint x="35" y="510" as="sourcePoint" />
            <mxPoint x="55" y="525" as="targetPoint" />
          </mxGeometry>
        </mxCell>
        <mxCell id="u0Waulj6cbrL7kYw__7z-41" value="" style="endArrow=none;html=1;rounded=0;entryX=1;entryY=1;entryDx=0;entryDy=0;" edge="1" parent="1" target="u0Waulj6cbrL7kYw__7z-35">
          <mxGeometry width="50" height="50" relative="1" as="geometry">
            <mxPoint x="65" y="470" as="sourcePoint" />
            <mxPoint x="115" y="420" as="targetPoint" />
            <Array as="points" />
          </mxGeometry>
        </mxCell>
      </root>
    </mxGraphModel>
  </diagram>
</mxfile>
